<mxfile host="app.diagrams.net" agent="Mozilla/5.0 (Windows NT 10.0; Win64; x64) AppleWebKit/537.36 (KHTML, like Gecko) Chrome/128.0.0.0 Safari/537.36" version="24.7.7">
  <diagram name="PÃ¡gina-1" id="9jMyGAkKr1cOhtlSl9ai">
    <mxGraphModel dx="756" dy="436" grid="1" gridSize="10" guides="1" tooltips="1" connect="1" arrows="1" fold="1" page="1" pageScale="1" pageWidth="1169" pageHeight="827" math="0" shadow="0">
      <root>
        <mxCell id="0" />
        <mxCell id="1" parent="0" />
        <mxCell id="9afEY8XssVBqUdK_qyHq-1" value="&amp;lt;&amp;lt;Interface&amp;gt;&amp;gt;&lt;div&gt;model&lt;/div&gt;&lt;div&gt;GraphicElement&lt;/div&gt;" style="swimlane;fontStyle=1;childLayout=stackLayout;horizontal=1;startSize=50;horizontalStack=0;resizeParent=1;resizeParentMax=0;resizeLast=0;collapsible=1;marginBottom=0;whiteSpace=wrap;html=1;fillColor=#d80073;strokeColor=#A50040;fontColor=#ffffff;" vertex="1" parent="1">
          <mxGeometry x="291" y="121" width="140" height="90" as="geometry" />
        </mxCell>
        <mxCell id="9afEY8XssVBqUdK_qyHq-2" value="+ accept(Visitor): void" style="text;strokeColor=none;fillColor=none;align=left;verticalAlign=middle;spacingLeft=4;spacingRight=4;overflow=hidden;points=[[0,0.5],[1,0.5]];portConstraint=eastwest;rotatable=0;whiteSpace=wrap;html=1;fontStyle=0" vertex="1" parent="9afEY8XssVBqUdK_qyHq-1">
          <mxGeometry y="50" width="140" height="40" as="geometry" />
        </mxCell>
        <mxCell id="9afEY8XssVBqUdK_qyHq-5" value="&amp;lt;&amp;lt;Interface&amp;gt;&amp;gt;&lt;div&gt;model: Visitor&lt;/div&gt;" style="swimlane;fontStyle=1;childLayout=stackLayout;horizontal=1;startSize=30;horizontalStack=0;resizeParent=1;resizeParentMax=0;resizeLast=0;collapsible=1;marginBottom=0;whiteSpace=wrap;html=1;fillColor=#e6d0de;strokeColor=#996185;gradientColor=#d5739d;" vertex="1" parent="1">
          <mxGeometry x="811" y="120" width="140" height="120" as="geometry" />
        </mxCell>
        <mxCell id="9afEY8XssVBqUdK_qyHq-6" value="+ visit(Circle): void" style="text;strokeColor=none;fillColor=none;align=left;verticalAlign=middle;spacingLeft=4;spacingRight=4;overflow=hidden;points=[[0,0.5],[1,0.5]];portConstraint=eastwest;rotatable=0;whiteSpace=wrap;html=1;" vertex="1" parent="9afEY8XssVBqUdK_qyHq-5">
          <mxGeometry y="30" width="140" height="30" as="geometry" />
        </mxCell>
        <mxCell id="9afEY8XssVBqUdK_qyHq-7" value="+ visit(Rectangle): void" style="text;strokeColor=none;fillColor=none;align=left;verticalAlign=middle;spacingLeft=4;spacingRight=4;overflow=hidden;points=[[0,0.5],[1,0.5]];portConstraint=eastwest;rotatable=0;whiteSpace=wrap;html=1;" vertex="1" parent="9afEY8XssVBqUdK_qyHq-5">
          <mxGeometry y="60" width="140" height="30" as="geometry" />
        </mxCell>
        <mxCell id="9afEY8XssVBqUdK_qyHq-8" value="+ visit(Triangle): void" style="text;strokeColor=none;fillColor=none;align=left;verticalAlign=middle;spacingLeft=4;spacingRight=4;overflow=hidden;points=[[0,0.5],[1,0.5]];portConstraint=eastwest;rotatable=0;whiteSpace=wrap;html=1;" vertex="1" parent="9afEY8XssVBqUdK_qyHq-5">
          <mxGeometry y="90" width="140" height="30" as="geometry" />
        </mxCell>
        <mxCell id="9afEY8XssVBqUdK_qyHq-22" value="model::Circle" style="swimlane;fontStyle=1;align=center;verticalAlign=top;childLayout=stackLayout;horizontal=1;startSize=26;horizontalStack=0;resizeParent=1;resizeParentMax=0;resizeLast=0;collapsible=1;marginBottom=0;whiteSpace=wrap;html=1;fillColor=#f8cecc;strokeColor=#b85450;" vertex="1" parent="1">
          <mxGeometry x="80" y="361" width="160" height="140" as="geometry" />
        </mxCell>
        <mxCell id="9afEY8XssVBqUdK_qyHq-23" value="- radius: int" style="text;strokeColor=none;fillColor=none;align=left;verticalAlign=top;spacingLeft=4;spacingRight=4;overflow=hidden;rotatable=0;points=[[0,0.5],[1,0.5]];portConstraint=eastwest;whiteSpace=wrap;html=1;" vertex="1" parent="9afEY8XssVBqUdK_qyHq-22">
          <mxGeometry y="26" width="160" height="26" as="geometry" />
        </mxCell>
        <mxCell id="9afEY8XssVBqUdK_qyHq-24" value="" style="line;strokeWidth=1;fillColor=none;align=left;verticalAlign=middle;spacingTop=-1;spacingLeft=3;spacingRight=3;rotatable=0;labelPosition=right;points=[];portConstraint=eastwest;strokeColor=inherit;" vertex="1" parent="9afEY8XssVBqUdK_qyHq-22">
          <mxGeometry y="52" width="160" height="8" as="geometry" />
        </mxCell>
        <mxCell id="9afEY8XssVBqUdK_qyHq-37" value="+ accept(Visitor): void" style="text;strokeColor=none;fillColor=none;align=left;verticalAlign=top;spacingLeft=4;spacingRight=4;overflow=hidden;rotatable=0;points=[[0,0.5],[1,0.5]];portConstraint=eastwest;whiteSpace=wrap;html=1;" vertex="1" parent="9afEY8XssVBqUdK_qyHq-22">
          <mxGeometry y="60" width="160" height="26" as="geometry" />
        </mxCell>
        <mxCell id="9afEY8XssVBqUdK_qyHq-38" value="+ Circle(int)" style="text;strokeColor=none;fillColor=none;align=left;verticalAlign=top;spacingLeft=4;spacingRight=4;overflow=hidden;rotatable=0;points=[[0,0.5],[1,0.5]];portConstraint=eastwest;whiteSpace=wrap;html=1;" vertex="1" parent="9afEY8XssVBqUdK_qyHq-22">
          <mxGeometry y="86" width="160" height="26" as="geometry" />
        </mxCell>
        <mxCell id="9afEY8XssVBqUdK_qyHq-25" value="+ Radius(): int" style="text;strokeColor=none;fillColor=none;align=left;verticalAlign=top;spacingLeft=4;spacingRight=4;overflow=hidden;rotatable=0;points=[[0,0.5],[1,0.5]];portConstraint=eastwest;whiteSpace=wrap;html=1;" vertex="1" parent="9afEY8XssVBqUdK_qyHq-22">
          <mxGeometry y="112" width="160" height="28" as="geometry" />
        </mxCell>
        <mxCell id="9afEY8XssVBqUdK_qyHq-39" value="model::Rectangle" style="swimlane;fontStyle=1;align=center;verticalAlign=top;childLayout=stackLayout;horizontal=1;startSize=26;horizontalStack=0;resizeParent=1;resizeParentMax=0;resizeLast=0;collapsible=1;marginBottom=0;whiteSpace=wrap;html=1;fillColor=#f8cecc;strokeColor=#b85450;" vertex="1" parent="1">
          <mxGeometry x="279" y="359" width="160" height="190" as="geometry" />
        </mxCell>
        <mxCell id="9afEY8XssVBqUdK_qyHq-40" value="- height: int" style="text;strokeColor=none;fillColor=none;align=left;verticalAlign=top;spacingLeft=4;spacingRight=4;overflow=hidden;rotatable=0;points=[[0,0.5],[1,0.5]];portConstraint=eastwest;whiteSpace=wrap;html=1;" vertex="1" parent="9afEY8XssVBqUdK_qyHq-39">
          <mxGeometry y="26" width="160" height="24" as="geometry" />
        </mxCell>
        <mxCell id="9afEY8XssVBqUdK_qyHq-45" value="-width: int" style="text;strokeColor=none;fillColor=none;align=left;verticalAlign=top;spacingLeft=4;spacingRight=4;overflow=hidden;rotatable=0;points=[[0,0.5],[1,0.5]];portConstraint=eastwest;whiteSpace=wrap;html=1;" vertex="1" parent="9afEY8XssVBqUdK_qyHq-39">
          <mxGeometry y="50" width="160" height="26" as="geometry" />
        </mxCell>
        <mxCell id="9afEY8XssVBqUdK_qyHq-41" value="" style="line;strokeWidth=1;fillColor=none;align=left;verticalAlign=middle;spacingTop=-1;spacingLeft=3;spacingRight=3;rotatable=0;labelPosition=right;points=[];portConstraint=eastwest;strokeColor=inherit;" vertex="1" parent="9afEY8XssVBqUdK_qyHq-39">
          <mxGeometry y="76" width="160" height="8" as="geometry" />
        </mxCell>
        <mxCell id="9afEY8XssVBqUdK_qyHq-46" value="+ accept(Visitor): void" style="text;strokeColor=none;fillColor=none;align=left;verticalAlign=top;spacingLeft=4;spacingRight=4;overflow=hidden;rotatable=0;points=[[0,0.5],[1,0.5]];portConstraint=eastwest;whiteSpace=wrap;html=1;" vertex="1" parent="9afEY8XssVBqUdK_qyHq-39">
          <mxGeometry y="84" width="160" height="26" as="geometry" />
        </mxCell>
        <mxCell id="9afEY8XssVBqUdK_qyHq-42" value="+ getHeight: int" style="text;strokeColor=none;fillColor=none;align=left;verticalAlign=top;spacingLeft=4;spacingRight=4;overflow=hidden;rotatable=0;points=[[0,0.5],[1,0.5]];portConstraint=eastwest;whiteSpace=wrap;html=1;" vertex="1" parent="9afEY8XssVBqUdK_qyHq-39">
          <mxGeometry y="110" width="160" height="26" as="geometry" />
        </mxCell>
        <mxCell id="9afEY8XssVBqUdK_qyHq-43" value="+ getWidth: int" style="text;strokeColor=none;fillColor=none;align=left;verticalAlign=top;spacingLeft=4;spacingRight=4;overflow=hidden;rotatable=0;points=[[0,0.5],[1,0.5]];portConstraint=eastwest;whiteSpace=wrap;html=1;" vertex="1" parent="9afEY8XssVBqUdK_qyHq-39">
          <mxGeometry y="136" width="160" height="26" as="geometry" />
        </mxCell>
        <mxCell id="9afEY8XssVBqUdK_qyHq-44" value="+ Rectangle(int, int)" style="text;strokeColor=none;fillColor=none;align=left;verticalAlign=top;spacingLeft=4;spacingRight=4;overflow=hidden;rotatable=0;points=[[0,0.5],[1,0.5]];portConstraint=eastwest;whiteSpace=wrap;html=1;" vertex="1" parent="9afEY8XssVBqUdK_qyHq-39">
          <mxGeometry y="162" width="160" height="28" as="geometry" />
        </mxCell>
        <mxCell id="9afEY8XssVBqUdK_qyHq-47" value="model::Triangle" style="swimlane;fontStyle=1;align=center;verticalAlign=top;childLayout=stackLayout;horizontal=1;startSize=26;horizontalStack=0;resizeParent=1;resizeParentMax=0;resizeLast=0;collapsible=1;marginBottom=0;whiteSpace=wrap;html=1;fillColor=#f8cecc;strokeColor=#b85450;" vertex="1" parent="1">
          <mxGeometry x="479" y="359" width="150" height="190" as="geometry" />
        </mxCell>
        <mxCell id="9afEY8XssVBqUdK_qyHq-48" value="- base: int" style="text;strokeColor=none;fillColor=none;align=left;verticalAlign=top;spacingLeft=4;spacingRight=4;overflow=hidden;rotatable=0;points=[[0,0.5],[1,0.5]];portConstraint=eastwest;whiteSpace=wrap;html=1;" vertex="1" parent="9afEY8XssVBqUdK_qyHq-47">
          <mxGeometry y="26" width="150" height="24" as="geometry" />
        </mxCell>
        <mxCell id="9afEY8XssVBqUdK_qyHq-49" value="- heght: int" style="text;strokeColor=none;fillColor=none;align=left;verticalAlign=top;spacingLeft=4;spacingRight=4;overflow=hidden;rotatable=0;points=[[0,0.5],[1,0.5]];portConstraint=eastwest;whiteSpace=wrap;html=1;" vertex="1" parent="9afEY8XssVBqUdK_qyHq-47">
          <mxGeometry y="50" width="150" height="26" as="geometry" />
        </mxCell>
        <mxCell id="9afEY8XssVBqUdK_qyHq-50" value="" style="line;strokeWidth=1;fillColor=none;align=left;verticalAlign=middle;spacingTop=-1;spacingLeft=3;spacingRight=3;rotatable=0;labelPosition=right;points=[];portConstraint=eastwest;strokeColor=inherit;" vertex="1" parent="9afEY8XssVBqUdK_qyHq-47">
          <mxGeometry y="76" width="150" height="8" as="geometry" />
        </mxCell>
        <mxCell id="9afEY8XssVBqUdK_qyHq-51" value="+ accept(Visitor): void" style="text;strokeColor=none;fillColor=none;align=left;verticalAlign=top;spacingLeft=4;spacingRight=4;overflow=hidden;rotatable=0;points=[[0,0.5],[1,0.5]];portConstraint=eastwest;whiteSpace=wrap;html=1;" vertex="1" parent="9afEY8XssVBqUdK_qyHq-47">
          <mxGeometry y="84" width="150" height="26" as="geometry" />
        </mxCell>
        <mxCell id="9afEY8XssVBqUdK_qyHq-52" value="+ getBase(): int" style="text;strokeColor=none;fillColor=none;align=left;verticalAlign=top;spacingLeft=4;spacingRight=4;overflow=hidden;rotatable=0;points=[[0,0.5],[1,0.5]];portConstraint=eastwest;whiteSpace=wrap;html=1;" vertex="1" parent="9afEY8XssVBqUdK_qyHq-47">
          <mxGeometry y="110" width="150" height="26" as="geometry" />
        </mxCell>
        <mxCell id="9afEY8XssVBqUdK_qyHq-53" value="+ getHeigth(): int" style="text;strokeColor=none;fillColor=none;align=left;verticalAlign=top;spacingLeft=4;spacingRight=4;overflow=hidden;rotatable=0;points=[[0,0.5],[1,0.5]];portConstraint=eastwest;whiteSpace=wrap;html=1;" vertex="1" parent="9afEY8XssVBqUdK_qyHq-47">
          <mxGeometry y="136" width="150" height="26" as="geometry" />
        </mxCell>
        <mxCell id="9afEY8XssVBqUdK_qyHq-54" value="+ Triangle(int, int)" style="text;strokeColor=none;fillColor=none;align=left;verticalAlign=top;spacingLeft=4;spacingRight=4;overflow=hidden;rotatable=0;points=[[0,0.5],[1,0.5]];portConstraint=eastwest;whiteSpace=wrap;html=1;" vertex="1" parent="9afEY8XssVBqUdK_qyHq-47">
          <mxGeometry y="162" width="150" height="28" as="geometry" />
        </mxCell>
        <mxCell id="9afEY8XssVBqUdK_qyHq-55" value="visitors::ShapeRenderer" style="swimlane;fontStyle=0;childLayout=stackLayout;horizontal=1;startSize=26;fillColor=#e1d5e7;horizontalStack=0;resizeParent=1;resizeParentMax=0;resizeLast=0;collapsible=1;marginBottom=0;whiteSpace=wrap;html=1;strokeColor=#9673a6;" vertex="1" parent="1">
          <mxGeometry x="720" y="360" width="140" height="104" as="geometry" />
        </mxCell>
        <mxCell id="9afEY8XssVBqUdK_qyHq-56" value="+ visit(Circle): void" style="text;strokeColor=none;fillColor=none;align=left;verticalAlign=top;spacingLeft=4;spacingRight=4;overflow=hidden;rotatable=0;points=[[0,0.5],[1,0.5]];portConstraint=eastwest;whiteSpace=wrap;html=1;" vertex="1" parent="9afEY8XssVBqUdK_qyHq-55">
          <mxGeometry y="26" width="140" height="26" as="geometry" />
        </mxCell>
        <mxCell id="9afEY8XssVBqUdK_qyHq-57" value="+ visit(Rectangle): void" style="text;strokeColor=none;fillColor=none;align=left;verticalAlign=top;spacingLeft=4;spacingRight=4;overflow=hidden;rotatable=0;points=[[0,0.5],[1,0.5]];portConstraint=eastwest;whiteSpace=wrap;html=1;" vertex="1" parent="9afEY8XssVBqUdK_qyHq-55">
          <mxGeometry y="52" width="140" height="26" as="geometry" />
        </mxCell>
        <mxCell id="9afEY8XssVBqUdK_qyHq-58" value="+ visit(Triangle): void" style="text;strokeColor=none;fillColor=none;align=left;verticalAlign=top;spacingLeft=4;spacingRight=4;overflow=hidden;rotatable=0;points=[[0,0.5],[1,0.5]];portConstraint=eastwest;whiteSpace=wrap;html=1;" vertex="1" parent="9afEY8XssVBqUdK_qyHq-55">
          <mxGeometry y="78" width="140" height="26" as="geometry" />
        </mxCell>
        <mxCell id="9afEY8XssVBqUdK_qyHq-59" value="visitors::AreaCalculator" style="swimlane;fontStyle=0;childLayout=stackLayout;horizontal=1;startSize=26;fillColor=#e1d5e7;horizontalStack=0;resizeParent=1;resizeParentMax=0;resizeLast=0;collapsible=1;marginBottom=0;whiteSpace=wrap;html=1;strokeColor=#9673a6;" vertex="1" parent="1">
          <mxGeometry x="899" y="360" width="140" height="102" as="geometry" />
        </mxCell>
        <mxCell id="9afEY8XssVBqUdK_qyHq-60" value="+ visit(Triangle): void" style="text;strokeColor=none;fillColor=none;align=left;verticalAlign=top;spacingLeft=4;spacingRight=4;overflow=hidden;rotatable=0;points=[[0,0.5],[1,0.5]];portConstraint=eastwest;whiteSpace=wrap;html=1;" vertex="1" parent="9afEY8XssVBqUdK_qyHq-59">
          <mxGeometry y="26" width="140" height="24" as="geometry" />
        </mxCell>
        <mxCell id="9afEY8XssVBqUdK_qyHq-61" value="+ visit(Circle): void" style="text;strokeColor=none;fillColor=none;align=left;verticalAlign=top;spacingLeft=4;spacingRight=4;overflow=hidden;rotatable=0;points=[[0,0.5],[1,0.5]];portConstraint=eastwest;whiteSpace=wrap;html=1;" vertex="1" parent="9afEY8XssVBqUdK_qyHq-59">
          <mxGeometry y="50" width="140" height="26" as="geometry" />
        </mxCell>
        <mxCell id="9afEY8XssVBqUdK_qyHq-62" value="+ visit(Rectangle): void" style="text;strokeColor=none;fillColor=none;align=left;verticalAlign=top;spacingLeft=4;spacingRight=4;overflow=hidden;rotatable=0;points=[[0,0.5],[1,0.5]];portConstraint=eastwest;whiteSpace=wrap;html=1;" vertex="1" parent="9afEY8XssVBqUdK_qyHq-59">
          <mxGeometry y="76" width="140" height="26" as="geometry" />
        </mxCell>
        <mxCell id="9afEY8XssVBqUdK_qyHq-69" value="" style="strokeWidth=2;html=1;shape=mxgraph.flowchart.annotation_1;align=left;pointerEvents=1;direction=south;" vertex="1" parent="1">
          <mxGeometry x="181" y="330" width="359" height="30" as="geometry" />
        </mxCell>
        <mxCell id="9afEY8XssVBqUdK_qyHq-75" value="" style="line;strokeWidth=2;html=1;direction=south;" vertex="1" parent="1">
          <mxGeometry x="356" y="330" width="10" height="30" as="geometry" />
        </mxCell>
        <mxCell id="9afEY8XssVBqUdK_qyHq-81" value="Use" style="endArrow=blockThin;endSize=12;dashed=1;html=1;rounded=0;endFill=0;exitX=0;exitY=0.5;exitDx=0;exitDy=0;exitPerimeter=0;entryX=-2.02;entryY=0.514;entryDx=0;entryDy=0;entryPerimeter=0;" edge="1" parent="1" source="9afEY8XssVBqUdK_qyHq-69">
          <mxGeometry width="160" relative="1" as="geometry">
            <mxPoint x="358" y="311" as="sourcePoint" />
            <mxPoint x="359.5499999999999" y="210" as="targetPoint" />
          </mxGeometry>
        </mxCell>
        <mxCell id="9afEY8XssVBqUdK_qyHq-83" value="" style="strokeWidth=2;html=1;shape=mxgraph.flowchart.annotation_1;align=left;pointerEvents=1;direction=south;" vertex="1" parent="1">
          <mxGeometry x="780" y="330" width="185" height="30" as="geometry" />
        </mxCell>
        <mxCell id="9afEY8XssVBqUdK_qyHq-84" value="Use" style="endArrow=blockThin;endSize=12;dashed=1;html=1;rounded=0;endFill=0;entryX=-2.02;entryY=0.514;entryDx=0;entryDy=0;entryPerimeter=0;" edge="1" parent="1">
          <mxGeometry width="160" relative="1" as="geometry">
            <mxPoint x="878" y="330" as="sourcePoint" />
            <mxPoint x="877.55" y="239" as="targetPoint" />
          </mxGeometry>
        </mxCell>
        <mxCell id="9afEY8XssVBqUdK_qyHq-85" value="Enma Leticia RamÃ­rez Castro&lt;div&gt;Carnet: 0907-23-18206&lt;/div&gt;" style="text;strokeColor=none;align=center;fillColor=none;html=1;verticalAlign=middle;whiteSpace=wrap;rounded=0;" vertex="1" parent="1">
          <mxGeometry x="116" y="50" width="240" height="30" as="geometry" />
        </mxCell>
        <mxCell id="9afEY8XssVBqUdK_qyHq-86" value="Patron de comportamiento" style="text;strokeColor=none;align=center;fillColor=none;html=1;verticalAlign=middle;whiteSpace=wrap;rounded=0;fontStyle=3" vertex="1" parent="1">
          <mxGeometry x="515" y="13" width="150" height="30" as="geometry" />
        </mxCell>
        <mxCell id="9afEY8XssVBqUdK_qyHq-87" value="VISITOR" style="text;strokeColor=none;align=center;fillColor=none;html=1;verticalAlign=middle;whiteSpace=wrap;rounded=0;fontStyle=5" vertex="1" parent="1">
          <mxGeometry x="540" y="56" width="100" height="40" as="geometry" />
        </mxCell>
      </root>
    </mxGraphModel>
  </diagram>
</mxfile>
